<svg xmlns="http://www.w3.org/2000/svg" xmlns:xlink="http://www.w3.org/1999/xlink" fill="none" version="1.1" width="48" height="48" viewBox="0.046875 0 48 48"><g><path d="M30.891964,12.9492121C28.786188,9.8202628,25.244898,7.875,21.361343,7.875L21.171429,7.8765385782C15.105926,7.97488147,10.1835041,12.7755241,9.890746100000001,18.791885999999998L9.884062799999999,18.955922L9.786654,18.989515C6.1765406,20.260612000000002,3.65625,23.698765,3.65625,27.65625C3.65625,32.730366000000004,7.7696338,36.84375,12.84375,36.84375L12.9358559,36.843295999999995L13.0114689,36.842155000000005L13.0311775,36.842979C13.0467625,36.843492999999995,13.0624142,36.84375,13.078125,36.84375L14.215502,36.84375L14.238756,36.843561C15.004682,36.831143999999995,15.621752,36.206383,15.621752,35.4375L15.621563,35.414246C15.609144,34.648320999999996,14.984385,34.03125,14.215502,34.03125L13.1784372,34.03125L13.1556911,34.029835C13.1163912,34.027714,13.0766678,34.027215999999996,13.0365896,34.028400000000005C12.9724522,34.0303,12.9081678,34.03125,12.84375,34.03125C9.3229346,34.03125,6.46875,31.177065,6.46875,27.65625C6.46875,24.605503,8.6285706,21.998247,11.581565900000001,21.405908L11.6022339,21.401604C12.282177,21.254713000000002,12.7538223,20.631517000000002,12.7082424,19.935261L12.70327,19.853397C12.6940832,19.689522,12.6894693,19.524768,12.6894693,19.359375C12.6894693,14.5700302,16.572001,10.6875,21.361343,10.6875C24.584982,10.6875,27.494514,12.4607487,28.998558,15.2474165L29.008522,15.2655592C29.341167,15.8610172,30.054588,16.1327362,30.700302,15.9069109L30.740108,15.8932476C31.112389,15.7678862,31.504997,15.703125,31.908218,15.703125C33.927509,15.703125,35.564468000000005,17.3400841,35.564468000000005,19.359375C35.564468000000005,19.527158999999997,35.553261,19.693131,35.531101,19.856686L35.528309,19.878543999999998C35.441935,20.599373,35.919441,21.269317,36.631889,21.420942L36.719193,21.440165C39.592258,22.093853,41.671875,24.663033,41.671875,27.65625C41.671875,31.177065,38.817688,34.03125,35.296875,34.03125C35.1549,34.03125,35.013584,34.02663,34.873059999999995,34.017437L34.848777999999996,34.016056C34.75181,34.011354,34.656704000000005,34.016602,34.564434,34.030879999999996L34.562111,34.03125L33.850646999999995,34.03125L33.827393,34.031439C33.06147,34.043856000000005,32.444396999999995,34.668617,32.444396999999995,35.4375C32.444396999999995,36.214149,33.073997,36.84375,33.850646999999995,36.84375L34.78125,36.84375L34.804493,36.843561C34.843154999999996,36.842934,34.881437,36.840748000000005,34.919283,36.837061L34.926422,36.836296000000004L34.949188,36.837272999999996C35.064831,36.841587000000004,35.18074,36.84375,35.296875,36.84375C40.370991,36.84375,44.484375,32.730366000000004,44.484375,27.65625L44.483459,27.525705C44.429222,23.658580999999998,41.968811,20.304413,38.443924,19.021746L38.366623,18.994219L38.363213,18.934053C38.144196,15.5597239,35.337908,12.890625,31.908218,12.890625L31.855755,12.8908343C31.541113,12.893345400000001,31.229301,12.918438,30.922188,12.9654875L30.90464,12.968249799999999L30.891964,12.9492121ZM23.209162,22.196955000000003C23.76944,21.596407,24.721191,21.60276,25.273739,22.205686L25.290359,22.224138L31.22422,28.927263C31.739012,29.508793,31.684912,30.397535,31.103382,30.912327C30.52767,31.42197,29.650854,31.374043,29.133875,30.808777L29.11832,30.791489L25.476562,26.677645L25.476562,39.398438C25.476562,40.175087,24.846962,40.804688,24.070312,40.804688C23.301428,40.804688,22.67667,40.187614,22.664251,39.421692L22.664062,39.398438L22.664062,26.904102L19.012016,30.818672C18.48751,31.380878,17.610120000000002,31.416756,17.041607,30.903347L17.024473999999998,30.887623C16.462268,30.363117,16.426391000000002,29.485725,16.939797,28.917213L16.955523,28.900082L23.209162,22.196955000000003Z" fill-rule="evenodd" fill="#999999" fill-opacity="1"/></g></svg>